<svg xmlns="http://www.w3.org/2000/svg" viewBox="0 0 512 512">
  <defs>
    <linearGradient id="steelGrad" x1="0%" y1="0%" x2="100%" y2="100%">
      <stop offset="0%" style="stop-color:#1a1f2e" />
      <stop offset="50%" style="stop-color:#0d1117" />
      <stop offset="100%" style="stop-color:#1a1f2e" />
    </linearGradient>

    <linearGradient id="ringGrad" x1="0%" y1="0%" x2="100%" y2="100%">
      <stop offset="0%" style="stop-color:#3d5a80" />
      <stop offset="50%" style="stop-color:#98c1d9" />
      <stop offset="100%" style="stop-color:#3d5a80" />
    </linearGradient>

    <linearGradient id="coreGrad" x1="0%" y1="0%" x2="0%" y2="100%">
      <stop offset="0%" style="stop-color:#5BA3FF" />
      <stop offset="100%" style="stop-color:#1d4e89" />
    </linearGradient>

    <linearGradient id="fadeDown" x1="0%" y1="0%" x2="0%" y2="100%">
      <stop offset="0%" style="stop-color:#5BA3FF;stop-opacity:1" />
      <stop offset="70%" style="stop-color:#5BA3FF;stop-opacity:0.6" />
      <stop offset="100%" style="stop-color:#5BA3FF;stop-opacity:0" />
    </linearGradient>

    <filter id="glow">
      <feGaussianBlur stdDeviation="2" result="blur"/>
      <feMerge>
        <feMergeNode in="blur"/>
        <feMergeNode in="SourceGraphic"/>
      </feMerge>
    </filter>

    <filter id="starGlow">
      <feGaussianBlur stdDeviation="1.5" result="blur"/>
      <feMerge>
        <feMergeNode in="blur"/>
        <feMergeNode in="SourceGraphic"/>
      </feMerge>
    </filter>

    <filter id="innerShadow">
      <feOffset dx="0" dy="2"/>
      <feGaussianBlur stdDeviation="3" result="offset-blur"/>
      <feComposite operator="out" in="SourceGraphic" in2="offset-blur" result="inverse"/>
      <feFlood flood-color="black" flood-opacity="0.4" result="color"/>
      <feComposite operator="in" in="color" in2="inverse" result="shadow"/>
      <feComposite operator="over" in="shadow" in2="SourceGraphic"/>
    </filter>
  </defs>

  <!-- Outer ring (seal border) -->
  <circle cx="256" cy="256" r="248" fill="none" stroke="url(#ringGrad)" stroke-width="8"/>
  <circle cx="256" cy="256" r="238" fill="none" stroke="#1a1f2e" stroke-width="2"/>

  <!-- Inner dark field -->
  <circle cx="256" cy="256" r="232" fill="url(#steelGrad)"/>

  <!-- Decorative rings -->
  <circle cx="256" cy="256" r="218" fill="none" stroke="#3d5a80" stroke-width="0.75" opacity="0.4"/>
  <circle cx="256" cy="256" r="200" fill="none" stroke="#3d5a80" stroke-width="0.5" opacity="0.3"/>

  <!-- PLEIADES - The Seven Sisters -->
  <g filter="url(#starGlow)">
    <!-- Alcyone (Alpha, brightest) -->
    <polygon points="256,42 260,53 271,53 262,60 266,72 256,65 246,72 250,60 241,53 252,53" fill="#e8f4fc"/>
    <circle cx="256" cy="55" r="4" fill="#ffffff" opacity="0.9"/>

    <!-- Atlas -->
    <polygon points="210,50 213,58 221,58 215,63 217,72 210,67 203,72 205,63 199,58 207,58" fill="#c9e4f6"/>
    <circle cx="210" cy="60" r="3" fill="#ffffff" opacity="0.7"/>

    <!-- Pleione -->
    <polygon points="193,68 195,75 202,75 197,79 199,87 193,82 187,87 189,79 184,75 191,75" fill="#a3d4f0" opacity="0.9"/>

    <!-- Maia -->
    <polygon points="295,55 298,63 306,63 300,68 302,77 295,72 288,77 290,68 284,63 292,63" fill="#c9e4f6"/>
    <circle cx="295" cy="65" r="3" fill="#ffffff" opacity="0.7"/>

    <!-- Electra -->
    <polygon points="225,80 227,87 234,87 229,91 231,99 225,94 219,99 221,91 216,87 223,87" fill="#a3d4f0" opacity="0.85"/>

    <!-- Taygeta -->
    <polygon points="302,40 304,47 311,47 306,51 308,59 302,54 296,59 298,51 293,47 300,47" fill="#a3d4f0" opacity="0.85"/>

    <!-- Merope (the veiled one) -->
    <polygon points="275,82 277,89 284,89 279,93 281,101 275,96 269,101 271,93 266,89 273,89" fill="#a3d4f0" opacity="0.8"/>
    <circle cx="275" cy="91" r="2" fill="#ffffff" opacity="0.5"/>
  </g>

  <!-- Constellation lines -->
  <g stroke="#5BA3FF" stroke-width="0.5" opacity="0.15">
    <line x1="256" y1="55" x2="210" y2="60"/>
    <line x1="256" y1="55" x2="295" y2="65"/>
    <line x1="210" y1="60" x2="193" y2="75"/>
    <line x1="210" y1="60" x2="225" y2="90"/>
    <line x1="295" y1="65" x2="302" y2="50"/>
    <line x1="295" y1="65" x2="275" y2="91"/>
    <line x1="256" y1="55" x2="225" y2="90"/>
    <line x1="256" y1="55" x2="275" y2="91"/>
  </g>

  <!-- Central V with flowing lines and fade -->
  <g>
    <!-- Flow lines (left side) -->
    <path d="M150 115 Q185 240 256 420" stroke="url(#fadeDown)" stroke-width="2" fill="none" opacity="0.25"/>
    <path d="M165 115 Q197 240 256 405" stroke="url(#fadeDown)" stroke-width="3" fill="none" opacity="0.35"/>
    <path d="M180 115 Q209 240 256 390" stroke="url(#fadeDown)" stroke-width="4" fill="none" opacity="0.45"/>
    <path d="M195 115 Q221 235 256 375" stroke="url(#fadeDown)" stroke-width="6" fill="none" opacity="0.55"/>
    <path d="M210 115 Q233 225 256 360" stroke="url(#fadeDown)" stroke-width="8" fill="none" opacity="0.65"/>

    <!-- Flow lines (right side) -->
    <path d="M362 115 Q327 240 256 420" stroke="url(#fadeDown)" stroke-width="2" fill="none" opacity="0.25"/>
    <path d="M347 115 Q315 240 256 405" stroke="url(#fadeDown)" stroke-width="3" fill="none" opacity="0.35"/>
    <path d="M332 115 Q303 240 256 390" stroke="url(#fadeDown)" stroke-width="4" fill="none" opacity="0.45"/>
    <path d="M317 115 Q291 235 256 375" stroke="url(#fadeDown)" stroke-width="6" fill="none" opacity="0.55"/>
    <path d="M302 115 Q279 225 256 360" stroke="url(#fadeDown)" stroke-width="8" fill="none" opacity="0.65"/>

    <!-- Core V shape -->
    <path d="M225 115 L256 350 L287 115"
          stroke="url(#fadeDown)"
          stroke-width="16"
          fill="none"
          stroke-linecap="round"
          stroke-linejoin="round"
          filter="url(#glow)"/>

    <!-- Highlight -->
    <path d="M229 123 L256 337 L283 123"
          stroke="#98c1d9"
          stroke-width="4"
          fill="none"
          stroke-linecap="round"
          stroke-linejoin="round"
          opacity="0.4"/>
  </g>

  <!-- Center convergence point -->
  <circle cx="256" cy="350" r="10" fill="#5BA3FF" filter="url(#glow)"/>
  <circle cx="256" cy="350" r="4" fill="#ffffff" opacity="0.7"/>

</svg>
