<svg xmlns="http://www.w3.org/2000/svg" viewBox="0 0 1200 627">
  <rect width="1200" height="627" fill="#0a0a0a"/>

  <!-- Title -->
  <text x="600" y="80" text-anchor="middle" fill="#e0e0e0" font-family="Inter, system-ui" font-size="48" font-weight="600" letter-spacing="12">VEIL</text>
  <text x="600" y="120" text-anchor="middle" fill="#888888" font-family="Inter, system-ui" font-size="18">Information-Theoretic Anonymous Communication</text>

  <!-- Flow diagram -->
  <rect x="80" y="180" width="120" height="60" rx="4" fill="none" stroke="#4a9eff" stroke-width="2"/>
  <text x="140" y="215" text-anchor="middle" fill="#e0e0e0" font-family="Inter, system-ui" font-size="14">Sender</text>

  <line x1="200" y1="210" x2="280" y2="210" stroke="#4a9eff" stroke-width="2"/>
  <polygon points="280,205 290,210 280,215" fill="#4a9eff"/>

  <rect x="290" y="180" width="120" height="60" rx="4" fill="none" stroke="#4a9eff" stroke-width="2"/>
  <text x="350" y="215" text-anchor="middle" fill="#e0e0e0" font-family="Inter, system-ui" font-size="14">DC-Net</text>

  <line x1="410" y1="210" x2="490" y2="210" stroke="#4a9eff" stroke-width="2"/>
  <polygon points="490,205 500,210 490,215" fill="#4a9eff"/>

  <rect x="500" y="180" width="120" height="60" rx="4" fill="none" stroke="#4a9eff" stroke-width="2"/>
  <text x="560" y="215" text-anchor="middle" fill="#e0e0e0" font-family="Inter, system-ui" font-size="14">Mix Cascade</text>

  <line x1="620" y1="210" x2="700" y2="210" stroke="#4a9eff" stroke-width="2"/>
  <polygon points="700,205 710,210 700,215" fill="#4a9eff"/>

  <rect x="710" y="180" width="120" height="60" rx="4" fill="none" stroke="#4a9eff" stroke-width="2"/>
  <text x="770" y="215" text-anchor="middle" fill="#e0e0e0" font-family="Inter, system-ui" font-size="14">PIR</text>

  <line x1="830" y1="210" x2="910" y2="210" stroke="#4a9eff" stroke-width="2"/>
  <polygon points="910,205 920,210 910,215" fill="#4a9eff"/>

  <rect x="920" y="180" width="120" height="60" rx="4" fill="none" stroke="#4a9eff" stroke-width="2"/>
  <text x="980" y="215" text-anchor="middle" fill="#e0e0e0" font-family="Inter, system-ui" font-size="14">Receiver</text>

  <!-- Labels -->
  <text x="350" y="270" text-anchor="middle" fill="#888888" font-family="Inter, system-ui" font-size="12">IT Anonymity</text>
  <text x="560" y="270" text-anchor="middle" fill="#888888" font-family="Inter, system-ui" font-size="12">ZK Proofs</text>
  <text x="770" y="270" text-anchor="middle" fill="#888888" font-family="Inter, system-ui" font-size="12">IT Privacy</text>

  <!-- Divider -->
  <line x1="100" y1="310" x2="1100" y2="310" stroke="#333333" stroke-width="1"/>

  <!-- Properties -->
  <text x="140" y="360" fill="#4a9eff" font-family="Inter, system-ui" font-size="16">✓</text>
  <text x="170" y="360" fill="#e0e0e0" font-family="Inter, system-ui" font-size="16">Sender Anonymous</text>
  <text x="400" y="360" fill="#888888" font-family="Inter, system-ui" font-size="14">(unconditional)</text>

  <text x="140" y="400" fill="#4a9eff" font-family="Inter, system-ui" font-size="16">✓</text>
  <text x="170" y="400" fill="#e0e0e0" font-family="Inter, system-ui" font-size="16">Receiver Private</text>
  <text x="400" y="400" fill="#888888" font-family="Inter, system-ui" font-size="14">(unconditional)</text>

  <text x="140" y="440" fill="#4a9eff" font-family="Inter, system-ui" font-size="16">✓</text>
  <text x="170" y="440" fill="#e0e0e0" font-family="Inter, system-ui" font-size="16">Messages Unlinkable</text>
  <text x="400" y="440" fill="#888888" font-family="Inter, system-ui" font-size="14">(128-bit)</text>

  <text x="600" y="360" fill="#4a9eff" font-family="Inter, system-ui" font-size="16">✓</text>
  <text x="630" y="360" fill="#e0e0e0" font-family="Inter, system-ui" font-size="16">Traffic Undetectable</text>
  <text x="860" y="360" fill="#888888" font-family="Inter, system-ui" font-size="14">(Tier 3)</text>

  <text x="600" y="400" fill="#4a9eff" font-family="Inter, system-ui" font-size="16">✓</text>
  <text x="630" y="400" fill="#e0e0e0" font-family="Inter, system-ui" font-size="16">Post-Quantum Ready</text>
  <text x="860" y="400" fill="#888888" font-family="Inter, system-ui" font-size="14">(ML-KEM-1024)</text>

  <text x="600" y="440" fill="#4a9eff" font-family="Inter, system-ui" font-size="16">✓</text>
  <text x="630" y="440" fill="#e0e0e0" font-family="Inter, system-ui" font-size="16">Formally Verified</text>
  <text x="860" y="440" fill="#888888" font-family="Inter, system-ui" font-size="14">(5 theorems)</text>

  <!-- Footer -->
  <line x1="100" y1="500" x2="1100" y2="500" stroke="#333333" stroke-width="1"/>
  <text x="600" y="560" text-anchor="middle" fill="#888888" font-family="Inter, system-ui" font-size="20">github.com/veil-protocol</text>

</svg>
